<svg xmlns="http://www.w3.org/2000/svg" xmlns:xlink="http://www.w3.org/1999/xlink" viewBox="0 0 500 500"><defs><clipPath id="freepik--clip-path--inject-338"><path d="M254.49,188.55s-8,4.43-13-10.24S252,136,268.05,130.15s35.71-6.09,50.66,6.36,13.84,42.91,13.84,42.91,14.4-.83,22.7,16.88-7.2,32.67-17.72,32.39-16-10-17.16-18.54-20.48-29.9-30.17-32.39-16.61,6.36-24.36,8S254.49,188.55,254.49,188.55Z" style="fill:#263238;stroke:#263238;stroke-linecap:round;stroke-linejoin:round"></path></clipPath></defs><g id="freepik--background-simple--inject-338"><path d="M208.87,459.69s77.87,14.07,142.35-39.53S437.28,277.8,456.66,206.34,446.13,70.4,385.8,48.74,296.21,78.57,219.63,93.52s-99.25,7.31-155.36,61.62S15,314.66,78.9,382.75,208.87,459.69,208.87,459.69Z" style="fill:#473BF0"></path><path d="M208.87,459.69s77.87,14.07,142.35-39.53S437.28,277.8,456.66,206.34,446.13,70.4,385.8,48.74,296.21,78.57,219.63,93.52s-99.25,7.31-155.36,61.62S15,314.66,78.9,382.75,208.87,459.69,208.87,459.69Z" style="fill:#fff;opacity:0.7000000000000001"></path></g><g id="freepik--Plants--inject-338"><path d="M31.47,309.51c2.75,1.2,9.46,1.05,9.47,1.05s-1.44-4.4-1.57-4.66c-1.48-3.09-6.13-8.18-9.93-7.66a4.52,4.52,0,0,0-3.63,5.67C26.44,306.54,29.13,308.49,31.47,309.51Z" style="fill:#263238"></path><path d="M33.79,329c2.85.42,8.84-1.32,9.32-1.46a80.56,80.56,0,0,0,3.63,10.06c.83,1.9,1.72,3.8,2.63,5.69-.54-.8-1-1.51-1.12-1.6-2.23-2.59-8.07-6.26-11.59-4.77a4.53,4.53,0,0,0-2,6.43c1.3,2.37,4.42,3.54,6.94,3.91s7.7-1,9.06-1.39c.36.72.71,1.45,1.07,2.17,1.73,3.45,3.48,6.89,5.09,10.32.57,1.21,1.08,2.42,1.6,3.63-.48-.72-.9-1.31-1-1.39-2.24-2.59-8.07-6.27-11.6-4.77a4.52,4.52,0,0,0-2,6.43c1.3,2.37,4.41,3.54,6.94,3.91s7.2-.88,8.81-1.32c.5,1.25,1,2.5,1.42,3.74.27.85.59,1.65.81,2.52s.47,1.71.71,2.55c.39,1.64.81,3.32,1.15,4.92.24,1.12.46,2.18.68,3.26-.55-1.21-1.68-3.55-1.8-3.74-1.82-2.89-7-7.41-10.74-6.47a4.53,4.53,0,0,0-3,6.06c.92,2.53,3.82,4.16,6.26,4.91,2.69.82,8.64.07,9.38,0,.36,1.78.69,3.51,1,5.15,1,5.68,1.62,10.45,2,13.79.07.59.12,1.12.18,1.62H56.15l1.4,27.24H82.79l1.39-27.24H73.46c.08-.16.15-.32.23-.49,1.48-3.07,3.52-7.47,5.72-12.87.7-1.7,1.42-3.53,2.13-5.42.72.15,6.61,1.35,9.36.73,2.48-.57,5.5-2,6.61-4.44a4.52,4.52,0,0,0-2.5-6.25c-3.62-1.22-9.16,2.9-11.19,5.65-.12.16-1.22,2.06-1.89,3.28.29-.78.57-1.52.86-2.32.58-1.58,1.11-3.17,1.69-4.88l.76-2.54c.27-.84.45-1.76.68-2.65.49-2.07.89-4.19,1.24-6.34,1.39.51,6.32,2.22,8.88,2s5.74-1.11,7.21-3.37a4.53,4.53,0,0,0-1.52-6.57c-3.4-1.75-9.5,1.48-11.92,3.89-.15.15-1.69,2.08-2.52,3.15.2-1.29.41-2.58.58-3.89.47-3.8.83-7.65,1.2-11.5.12-1.17.24-2.34.37-3.52.49.19,6.31,2.35,9.17,2.15,2.55-.18,5.74-1.11,7.22-3.37A4.54,4.54,0,0,0,104.3,337c-3.4-1.75-9.49,1.48-11.91,3.89-.19.18-2.4,2.95-2.93,3.69.27-2.59.57-5.16,1-7.68a80.06,80.06,0,0,1,2.21-10.11c.23.09,6.29,2.38,9.23,2.17,2.54-.18,5.73-1.11,7.21-3.37a4.53,4.53,0,0,0-1.52-6.57c-3.4-1.75-9.5,1.48-11.92,3.89-.19.19-2.57,3.17-3,3.75.06-.2.1-.4.16-.59a58.22,58.22,0,0,1,4-9.56c.87-1.71,1.8-3.28,2.73-4.8,1.09.54,6.08,3,8.74,3.07s5.83-.47,7.54-2.56a4.53,4.53,0,0,0-.79-6.69c-3.19-2.12-9.6.42-12.27,2.55-.15.12-1.5,1.46-2.46,2.45.43-.68.86-1.38,1.29-2,1.6-2.41,3.22-4.51,4.66-6.37.83-1.05,1.6-2,2.33-2.84,1.35,0,6.76-.19,9.13-1.3s5-3.11,5.51-5.75a4.54,4.54,0,0,0-3.79-5.58c-3.8-.41-8.32,4.81-9.71,7.93-.12.27-1.52,4.7-1.45,4.7h.08c-.72.82-1.48,1.7-2.29,2.68-1.49,1.83-3.15,3.91-4.81,6.3a78.32,78.32,0,0,0-5,7.94A58.8,58.8,0,0,0,92,325.8s0,.08,0,.12c0-1.12,0-4.26-.06-4.5-.44-3.39-3.28-9.67-7-10.37a4.52,4.52,0,0,0-5.22,4.26c-.22,2.69,1.73,5.38,3.63,7.08,2.15,1.92,8.11,3.78,8.58,3.92a81.39,81.39,0,0,0-2.52,10.4c-.36,2-.67,4.12-.94,6.2,0-1,0-1.84-.05-2-.44-3.39-3.28-9.67-7-10.37a4.53,4.53,0,0,0-5.22,4.26c-.22,2.69,1.73,5.38,3.64,7.08s7,3.41,8.32,3.84c-.1.8-.21,1.6-.3,2.4-.46,3.84-.9,7.67-1.45,11.42-.19,1.32-.43,2.61-.67,3.91,0-.86,0-1.59,0-1.7-.44-3.39-3.28-9.67-7-10.37a4.54,4.54,0,0,0-5.23,4.26c-.22,2.69,1.74,5.38,3.64,7.08S83.44,366,85,366.52c-.28,1.32-.56,2.64-.89,3.91-.24.86-.42,1.7-.71,2.55s-.55,1.69-.81,2.52c-.58,1.58-1.16,3.21-1.76,4.74-.41,1.06-.82,2.07-1.23,3.08.21-1.31.56-3.88.56-4.1a17.57,17.57,0,0,0-2.35-8.56,4.81,4.81,0,0,0-.07-1,4.52,4.52,0,0,0-5.53-3.84c-3.7,1-6,7.48-6.22,10.89,0,.2.12,2.4.23,3.78-.19-.8-.36-1.59-.56-2.41-.39-1.64-.82-3.26-1.29-5-.25-.84-.5-1.68-.76-2.53s-.6-1.72-.89-2.59c-.74-2-1.57-4-2.46-6,1.43-.34,6.49-1.63,8.53-3.19S73,354.7,73,352a4.53,4.53,0,0,0-4.89-4.63c-3.81.41-7.11,6.47-7.8,9.82,0,.21-.27,2.66-.36,4-.55-1.19-1.08-2.38-1.67-3.56-1.7-3.43-3.53-6.84-5.34-10.25l-1.64-3.14c.52-.12,6.57-1.52,8.85-3.27,2-1.55,4.17-4.09,4.15-6.79a4.53,4.53,0,0,0-4.89-4.64c-3.81.41-7.11,6.47-7.8,9.82,0,.25-.37,3.79-.41,4.69-1.19-2.31-2.37-4.62-3.43-6.94A79,79,0,0,1,44,327.47c.23-.06,6.56-1.49,8.89-3.28,2-1.56,4.17-4.1,4.15-6.8a4.54,4.54,0,0,0-4.89-4.64c-3.8.42-7.1,6.48-7.79,9.82-.06.27-.4,4.07-.41,4.76-.06-.19-.14-.38-.2-.57a58.28,58.28,0,0,1-1.93-10.18c-.22-1.9-.31-3.73-.37-5.51,1.21-.15,6.71-.88,9-2.26s4.6-3.61,4.88-6.3A4.53,4.53,0,0,0,51,297.37c-3.83,0-7.77,5.65-8.83,8.9-.06.18-.44,2-.7,3.4,0-.81,0-1.64,0-2.41,0-2.89.19-5.54.37-7.88.12-1.34.25-2.54.38-3.66,1.11-.76,5.53-3.89,6.89-6.12s2.42-5.32,1.42-7.84a4.53,4.53,0,0,0-6.23-2.56c-3.4,1.76-4.29,8.6-3.73,12,0,.29,1.33,4.76,1.39,4.72l.07,0c-.15,1.07-.3,2.23-.43,3.5-.24,2.35-.48,5-.55,7.9a81.53,81.53,0,0,0,.23,9.38A58.5,58.5,0,0,0,42.94,327a.56.56,0,0,1,0,.12c-.6-.95-2.37-3.54-2.53-3.72-2.23-2.58-8.07-6.26-11.59-4.77a4.54,4.54,0,0,0-2,6.44C28.15,327.42,31.27,328.59,33.79,329ZM71.73,379.1c2,2.12,7,4.6,7.62,4.92-.68,1.68-1.36,3.31-2,4.83-2.3,5.29-4.41,9.61-5.93,12.61-.31.6-.58,1.14-.84,1.63H70.3c-.08-.58-.16-1.22-.26-1.94-.46-3.37-1.19-8.17-2.33-13.89-.35-1.8-.77-3.73-1.21-5.7A49.88,49.88,0,0,0,71.73,379.1Z" style="fill:#263238"></path><path d="M99.4,311c.06,0,1.22-4.47,1.26-4.76.47-3.38-.61-10.2-4-11.86a4.52,4.52,0,0,0-6.16,2.73c-.93,2.54.24,5.65,1.63,7.79C93.71,307.41,99.39,311,99.4,311Z" style="fill:#263238"></path></g><g id="freepik--Character--inject-338"><path d="M127.19,298.5h0a4.84,4.84,0,0,1-5.58-4l-7.43-44.31,9.54-1.61,7.43,44.32A4.82,4.82,0,0,1,127.19,298.5Z" style="fill:#fff;stroke:#263238;stroke-linecap:round;stroke-linejoin:round"></path><path d="M127.07,268.61l-9.9-.57,4.44,26.49a4.84,4.84,0,1,0,9.54-1.6Z" style="fill:#473BF0;stroke:#263238;stroke-linecap:round;stroke-linejoin:round"></path><rect x="112.92" y="247.95" width="13.09" height="9.11" transform="translate(-40.15 23.26) rotate(-9.53)" style="fill:#fff;stroke:#263238;stroke-linecap:round;stroke-linejoin:round"></rect><path d="M143.77,347.37s-31.43-33.35-37-38.51-7.35-9.15-7.15-11.48,7.19-9.42,10.79-9.12S134.09,301.32,139.3,308a51.39,51.39,0,0,1,8.81,17.16c1.16,3.93,1.11,4.57,1.11,4.57l8.05,8.35Z" style="fill:#999;stroke:#263238;stroke-linecap:round;stroke-linejoin:round"></path><path d="M101.08,301.82s-2.94-4.92-1.39-7.47,17.64-23,20.32-23.06-.58,7-4.4,12.68-8,12-8.11,13-.22,2.66-.22,2.66" style="fill:#999;stroke:#263238;stroke-linecap:round;stroke-linejoin:round"></path><path d="M107.22,303.77s-.23-7.48,1.77-10.94,14.51-20.55,15.89-21.71,5.14-.22,2.51,5.75-9.79,20.09-9.93,21.79-1.66,12.23-1.66,12.23" style="fill:#999;stroke:#263238;stroke-linecap:round;stroke-linejoin:round"></path><path d="M116,308.56s1.16-11.42,1.82-11.58,12-23.32,12-23.32,3.9-3.3,2.72,5.77S126,300.65,126,300.65l-.67,15.73" style="fill:#999;stroke:#263238;stroke-linecap:round;stroke-linejoin:round"></path><path d="M125.6,311.07s3.34-14.44,4.29-15.64,3.66-13.14,5.37-13.21,2.52,3,1.06,7.77-3.2,10.19-3.2,10.19l1,10.54" style="fill:#999;stroke:#263238;stroke-linecap:round;stroke-linejoin:round"></path><path d="M218.74,427.37c7.4-1.4,33.94-32,33.94-32l-2.31,35.48H419.84c-2.07-17.19-13.38-164.32-14.52-167.36-1.21-3.23-71.58-33.05-71.58-33.05l-31.86,1.21S262,257.86,251.47,263.91s-14.11,8.47-14.11,10.89-23.24,96.35-23.24,96.35l-57.69-40.83L135.8,349.64l75.27,77.5S211.34,428.78,218.74,427.37Z" style="fill:#473BF0;stroke:#263238;stroke-linecap:round;stroke-linejoin:round"></path><line x1="252.76" y1="380.69" x2="253.09" y2="311.89" style="fill:none;stroke:#263238;stroke-linecap:round;stroke-linejoin:round"></line><line x1="252.68" y1="395.37" x2="252.73" y2="386.78" style="fill:none;stroke:#263238;stroke-linecap:round;stroke-linejoin:round"></line><line x1="252.28" y1="328.83" x2="244.62" y2="303.83" style="fill:none;stroke:#263238;stroke-linecap:round;stroke-linejoin:round"></line><path d="M214.12,371.15a43.09,43.09,0,0,1,5.21,18.16" style="fill:none;stroke:#263238;stroke-linecap:round;stroke-linejoin:round"></path><path d="M219.33,393.63s-.18,2.14-.18,6.46" style="fill:none;stroke:#263238;stroke-linecap:round;stroke-linejoin:round"></path><path d="M293.73,246.29l-9.67,35,12.34,8L283.4,305l17,71,42-73.33L329.73,288l18.67-4.67L344.06,240c-4.06-11.79-9.69-14-15.66-11.67C321.84,230.85,298.06,230.63,293.73,246.29Z" style="fill:#473BF0;stroke:#263238;stroke-linecap:round;stroke-linejoin:round"></path><path d="M296.73,250.63S304.06,299,304.06,317s-.33,21.67-.33,21.67,19.67-51.67,25.33-77a104.59,104.59,0,0,0-1-47.67S313.4,245,296.73,250.63Z" style="fill:#fff;stroke:#263238;stroke-linecap:round;stroke-linejoin:round"></path><path d="M328.06,214s-14.66,31-31.33,36.67c0,0,.38,2.49,1,6.53,4.24-.41,14.35-1.62,20.59-4.12,5.6-2.24,9.64-20,11.59-30.7A74.5,74.5,0,0,0,328.06,214Z" style="fill:#263238;stroke:#263238;stroke-linecap:round;stroke-linejoin:round"></path><path d="M325.72,274.39c-10.73,4.54-19.71,3.22-25.51,1.19,1.89,14.65,3.85,32.07,3.85,41.38,0,18-.33,21.67-.33,21.67S318,301.16,325.72,274.39Z" style="fill:#263238;stroke:#263238;stroke-linecap:round;stroke-linejoin:round"></path><path d="M254.49,188.55s-8,4.43-13-10.24S252,136,268.05,130.15s35.71-6.09,50.66,6.36,13.84,42.91,13.84,42.91,14.4-.83,22.7,16.88-7.2,32.67-17.72,32.39-16-10-17.16-18.54-20.48-29.9-30.17-32.39-16.61,6.36-24.36,8S254.49,188.55,254.49,188.55Z" style="fill:#263238"></path><g style="clip-path:url(#freepik--clip-path--inject-338)"><path d="M275.16,153s10,6.51,28.21,9.49,28.48,7.33,34.72,13" style="fill:none;stroke:#616161;stroke-linecap:round;stroke-linejoin:round"></path><path d="M279.23,142.46s15.73,8.14,33.63,7.33,29.3,13,29.3,13" style="fill:none;stroke:#616161;stroke-linecap:round;stroke-linejoin:round"></path><path d="M286.29,131.88a79.8,79.8,0,0,0,26.57,4.89A33.62,33.62,0,0,1,335.92,146" style="fill:none;stroke:#616161;stroke-linecap:round;stroke-linejoin:round"></path><path d="M264.59,155.21s-2.93,2.39-13,12.75-7,18.71-7,18.71" style="fill:none;stroke:#616161;stroke-linecap:round;stroke-linejoin:round"></path><path d="M264.59,149s-9.77,6-19,12.48-8.95,14.92-8.95,14.92" style="fill:none;stroke:#616161;stroke-linecap:round;stroke-linejoin:round"></path><path d="M268.38,137.31a50.46,50.46,0,0,0-16.27,9.76c-8.41,7.33-13,12.21-13,12.21" style="fill:none;stroke:#616161;stroke-linecap:round;stroke-linejoin:round"></path><path d="M257.81,134.33s5.69-4.34,11.39-6a16.08,16.08,0,0,1,10.85,1.08s-11.94,16-11.12,30.11" style="fill:none;stroke:#616161;stroke-linecap:round;stroke-linejoin:round"></path></g><path d="M254.49,188.55s-8,4.43-13-10.24S252,136,268.05,130.15s35.71-6.09,50.66,6.36,13.84,42.91,13.84,42.91,14.4-.83,22.7,16.88-7.2,32.67-17.72,32.39-16-10-17.16-18.54-20.48-29.9-30.17-32.39-16.61,6.36-24.36,8S254.49,188.55,254.49,188.55Z" style="fill:none;stroke:#263238;stroke-linecap:round;stroke-linejoin:round"></path><path d="M252.55,186.06s7.47,23.53,11.07,34.6,13.57,26.3,22.7,30.73,25.19-1.38,27.41-3.32,13.56-22.42,15.5-26.85.55-15.78.55-15.78,5.26-7.47,5-14.39-4.16-10.25-6.37-8.86a13.9,13.9,0,0,0-3.6,3.32s-1.94-3.6-9.41-8-13.13.59-25.31-3a119.71,119.71,0,0,1-19.8-7.6S262.24,182.19,252.55,186.06Z" style="fill:#fff;stroke:#263238;stroke-linecap:round;stroke-linejoin:round"></path><path d="M332.3,188.67s-.28-3.65-2.81-1.4-.28,5.89-.28,5.89,3.93-.84,2,2.25" style="fill:none;stroke:#263238;stroke-linecap:round;stroke-linejoin:round"></path><path d="M264.12,204.06V209a11.61,11.61,0,0,0,10.52-1.24" style="fill:none;stroke:#263238;stroke-linecap:round;stroke-linejoin:round"></path><path d="M292,198.91l.2,5.77a15.29,15.29,0,0,0,12-3.51" style="fill:none;stroke:#263238;stroke-linecap:round;stroke-linejoin:round"></path><path d="M261.65,198.7s4.33-3.09,14.43-.41" style="fill:none;stroke:#263238;stroke-linecap:round;stroke-linejoin:round;stroke-width:2px"></path><path d="M284.33,196.43s4.12-4.74,16.28-6.18" style="fill:none;stroke:#263238;stroke-linecap:round;stroke-linejoin:round;stroke-width:2px"></path><path d="M288.81,213.74c-7.19-1.66-6.64-1.93-11.62,2.22s-13.84,3.6-13.84,3.6l-.07,0c.12.36.23.72.34,1.06,3.6,11.08,13.57,26.3,22.7,30.73s25.19-1.38,27.41-3.32a37.46,37.46,0,0,0,3.92-5.76,13.86,13.86,0,0,0,.51-1.71c.83-3.88,2.49-12.46,5.81-18.27s5.81-16.89,5.81-16.89-8,21-11.35,20.21-3.6-7.2-3.6-10.8,7.48-11.9,10.25-20.21-.28-9.13-.28-9.13c-1.66,16.05-9.69,25.47-9.69,25.47C303.76,217.07,296,215.41,288.81,213.74Z" style="fill:#999;stroke:#263238;stroke-linecap:round;stroke-linejoin:round"></path><path d="M249.23,196.3c-2.16-.12,6.64,16.06,9.13,18.55s11.91,3.6,16.61,1.39,2.77-9.69,6.65-10,6.09,6.64,9.69,8,15.77-1.39,22.14-4.15,6.64-10,6.64-10L317.6,185S287.43,198.52,249.23,196.3Z" style="fill:none;stroke:#263238;stroke-linecap:round;stroke-linejoin:round"></path><path d="M249.23,196.3s34.6,3.6,78.61-15.5" style="fill:none;stroke:#263238;stroke-linecap:round;stroke-linejoin:round;stroke-width:3px"></path><line x1="309.85" y1="188.83" x2="313.45" y2="204.89" style="fill:none;stroke:#263238;stroke-linecap:round;stroke-linejoin:round"></line><path d="M270.88,371.88l-14.57,49.79.25,4.65,3.29-3.14L274.7,373a2,2,0,0,0-1.51-2.52h0A2,2,0,0,0,270.88,371.88Z" style="fill:#fff;stroke:#263238;stroke-linecap:round;stroke-linejoin:round"></path><path d="M322.76,403.31s-23.83-6.24-29.14-8.87-17.32-9.32-19.55-5.79S253.21,410,254.24,412.18,266.49,424.26,269,425s7.07,3.73,12.84,1.71,8.3-3,8.3-3,10.31,2.73,13.17,2.8,11.88-3.32,11.88-3.32l6.81-.57Z" style="fill:#999;stroke:#263238;stroke-linecap:round;stroke-linejoin:round"></path><line x1="258.79" y1="416.57" x2="278.19" y2="396.61" style="fill:none;stroke:#263238;stroke-linecap:round;stroke-linejoin:round"></line><line x1="263.33" y1="421.68" x2="280.89" y2="404.18" style="fill:none;stroke:#263238;stroke-linecap:round;stroke-linejoin:round"></line><line x1="271.11" y1="425.79" x2="285.35" y2="412.87" style="fill:none;stroke:#263238;stroke-linecap:round;stroke-linejoin:round"></line><path d="M383.19,278.42s-17.42,21.4-17.58,29.06,14.8,78.57,14.8,78.57l-63.56,11.11,1.75,30.29s100.85-.61,104.89-.92,12.48,1.08,13.35-2.13S408.26,268.73,407.5,266.7a8.9,8.9,0,0,0-9.57-5.06" style="fill:#473BF0;stroke:#263238;stroke-linecap:round;stroke-linejoin:round"></path><line x1="380.41" y1="386.05" x2="404.29" y2="382.55" style="fill:none;stroke:#263238;stroke-linecap:round;stroke-linejoin:round"></line><line x1="382.03" y1="386.09" x2="399.55" y2="378.01" style="fill:none;stroke:#263238;stroke-linecap:round;stroke-linejoin:round"></line><path d="M408.16,382.84s7.17-1.08,10.76-.72" style="fill:none;stroke:#263238;stroke-linecap:round;stroke-linejoin:round"></path><rect x="333.32" y="314.19" width="28.63" height="42.13" style="fill:#fff;stroke:#263238;stroke-linecap:round;stroke-linejoin:round"></rect><rect x="344.57" y="304.78" width="6.14" height="15.13" style="fill:#263238;stroke:#263238;stroke-linecap:round;stroke-linejoin:round"></rect><line x1="30.33" y1="430.76" x2="465.67" y2="430.76" style="fill:#fff;stroke:#263238;stroke-linecap:round;stroke-linejoin:round"></line><path d="M109.32,378.49H119a0,0,0,0,1,0,0v44.94a4.84,4.84,0,0,1-4.84,4.84h0a4.84,4.84,0,0,1-4.84-4.84V378.49a0,0,0,0,1,0,0Z" style="fill:#fff;stroke:#263238;stroke-linecap:round;stroke-linejoin:round"></path><path d="M109.32,396.85v26.58a4.84,4.84,0,1,0,9.67,0V396.85Z" style="fill:#473BF0;stroke:#263238;stroke-linecap:round;stroke-linejoin:round"></path><rect x="107.61" y="377.07" width="13.09" height="9.1" style="fill:#fff;stroke:#263238;stroke-linecap:round;stroke-linejoin:round"></rect><path d="M133,428.27h0a4.84,4.84,0,0,1-4.84-4.84V378.49h9.67v44.94A4.84,4.84,0,0,1,133,428.27Z" style="fill:#fff;stroke:#263238;stroke-linecap:round;stroke-linejoin:round"></path><path d="M128.13,396.85v26.58a4.84,4.84,0,1,0,9.67,0V396.85Z" style="fill:#473BF0;stroke:#263238;stroke-linecap:round;stroke-linejoin:round"></path><rect x="126.42" y="377.07" width="13.09" height="9.1" style="fill:#fff;stroke:#263238;stroke-linecap:round;stroke-linejoin:round"></rect><path d="M151.78,428.27h0a4.84,4.84,0,0,1-4.83-4.84V378.49h9.67v44.94A4.84,4.84,0,0,1,151.78,428.27Z" style="fill:#fff;stroke:#263238;stroke-linecap:round;stroke-linejoin:round"></path><path d="M147,396.85v26.58a4.84,4.84,0,0,0,4.83,4.84h0a4.84,4.84,0,0,0,4.84-4.84V396.85Z" style="fill:#473BF0;stroke:#263238;stroke-linecap:round;stroke-linejoin:round"></path><rect x="145.24" y="377.07" width="13.09" height="9.1" style="fill:#fff;stroke:#263238;stroke-linecap:round;stroke-linejoin:round"></rect><path d="M170.6,428.27h0a4.84,4.84,0,0,1-4.84-4.84V378.49h9.67v44.94A4.84,4.84,0,0,1,170.6,428.27Z" style="fill:#fff;stroke:#263238;stroke-linecap:round;stroke-linejoin:round"></path><path d="M165.76,396.85v26.58a4.84,4.84,0,1,0,9.67,0V396.85Z" style="fill:#473BF0;stroke:#263238;stroke-linecap:round;stroke-linejoin:round"></path><rect x="164.05" y="377.07" width="13.09" height="9.1" style="fill:#fff;stroke:#263238;stroke-linecap:round;stroke-linejoin:round"></rect><polygon points="185.32 391.08 101.06 391.08 101.06 393.94 185.32 393.94 185.32 423.8 96.97 423.8 96.97 430.76 191.05 430.76 191.05 429.12 191.05 423.8 191.05 393.94 191.05 391.08 185.32 391.08" style="fill:#fff;stroke:#263238;stroke-linecap:round;stroke-linejoin:round"></polygon><path d="M208.19,430.76h104.3v-3.69s-16.77.41-28.64-2a131,131,0,0,0-21.38-2.3c-4.79-.18-9.9.6-13.52,3.74-3.59-2.48-7.87-3.08-12.13-3.08-9.41,0-23.73,2.05-33.95,3.68a126.24,126.24,0,0,1-18,1.64v2.05Z" style="fill:#263238;stroke:#263238;stroke-linecap:round;stroke-linejoin:round"></path></g><g id="freepik--Device--inject-338"><path d="M391.36,227.34l-1.7-1.65a4,4,0,0,0-.3-.29h0a4.54,4.54,0,0,0-6.83,5.85h0l0,0a5,5,0,0,0,1.06,1.13l1.51,1.6.68-.72a4.91,4.91,0,0,0,.55,0,4.55,4.55,0,0,0,4.55-4.55,4.12,4.12,0,0,0-.09-.86Z" style="fill:#5e5e5e;stroke:#263238;stroke-linecap:round;stroke-linejoin:round"></path><circle cx="388.32" cy="230.77" r="4.55" style="fill:#263238;stroke:#263238;stroke-linecap:round;stroke-linejoin:round"></circle><path d="M396.8,231.3l-2.28-2.22-.41-.39h0a6.09,6.09,0,0,0-9.16,7.86h0l.05.06a6.18,6.18,0,0,0,1.42,1.51l2,2.15.91-1a6,6,0,0,0,.74.05,6.09,6.09,0,0,0,6-7.24Z" style="fill:#5e5e5e;stroke:#263238;stroke-linecap:round;stroke-linejoin:round"></path><circle cx="392.72" cy="235.9" r="6.1" style="fill:#263238;stroke:#263238;stroke-linecap:round;stroke-linejoin:round"></circle><path d="M409.07,227.34l-1.7-1.65a2.06,2.06,0,0,0-.3-.29h0a4.53,4.53,0,0,0-7.55,3.4,4.57,4.57,0,0,0,.72,2.45h0l0,0a4.74,4.74,0,0,0,1.06,1.13l1.51,1.6.67-.72a5.09,5.09,0,0,0,.56,0,4.55,4.55,0,0,0,4.54-4.55,4.91,4.91,0,0,0-.08-.86Z" style="fill:#5e5e5e;stroke:#263238;stroke-linecap:round;stroke-linejoin:round"></path><circle cx="406.03" cy="230.77" r="4.55" style="fill:#263238;stroke:#263238;stroke-linecap:round;stroke-linejoin:round"></circle><path d="M414.51,231.3l-2.28-2.22-.4-.39h0a6.09,6.09,0,0,0-9.16,7.86h0l.05.06a6.22,6.22,0,0,0,1.43,1.51l2,2.15.9-1a6.16,6.16,0,0,0,.75.05,6.09,6.09,0,0,0,6-7.24Z" style="fill:#5e5e5e;stroke:#263238;stroke-linecap:round;stroke-linejoin:round"></path><path d="M416.54,235.9a6.1,6.1,0,1,1-6.1-6.1A6.1,6.1,0,0,1,416.54,235.9Z" style="fill:#263238;stroke:#263238;stroke-linecap:round;stroke-linejoin:round"></path><path d="M421.7,238a6.38,6.38,0,0,0-1.21-1.52l-.15-.18h0a6.29,6.29,0,0,0-4.1-1.51H391.49a6.32,6.32,0,0,0-6.32,6.32h0a6.32,6.32,0,0,0,1.75,4.36l-.08,0,10.54,11.64,34.27-8.2Z" style="fill:#5e5e5e;stroke:#263238;stroke-linecap:round;stroke-linejoin:round"></path><path d="M427.71,260.31H403a6.32,6.32,0,0,1-6.32-6.32h0a6.32,6.32,0,0,1,6.32-6.32h24.71A6.32,6.32,0,0,1,434,254h0A6.32,6.32,0,0,1,427.71,260.31Z" style="fill:#263238;stroke:#263238;stroke-linecap:round;stroke-linejoin:round"></path><path d="M436.78,255.49H401.92l3.1,8.12L401.92,281h34.86a12.78,12.78,0,0,0,0-25.54Z" style="fill:#263238;stroke:#263238;stroke-linecap:round;stroke-linejoin:round"></path><path d="M401.92,255.49V281a12.78,12.78,0,0,0,0-25.54Z" style="fill:#5e5e5e;stroke:#263238;stroke-linecap:round;stroke-linejoin:round"></path><path d="M414.7,284s-12.78,1.74-22.47,9.1-11.62,14.53-12.39,18.59a52.46,52.46,0,0,0-.78,8.53v66.62h13.17V318.62s-1.16-8.91,3.88-16.27,18.59-10.46,18.59-10.46Z" style="fill:#263238;stroke:#263238;stroke-linecap:round;stroke-linejoin:round"></path><path d="M403.27,284s-12.78,1.74-22.46,9.1-11.62,14.53-12.4,18.59a53.13,53.13,0,0,0-.77,8.53v66.62h13.17V318.62s-1.16-8.91,3.87-16.27,18.59-10.46,18.59-10.46Z" style="fill:#fff;stroke:#263238;stroke-linecap:round;stroke-linejoin:round"></path><circle cx="372.78" cy="359.76" r="9.57" transform="translate(-42.19 669.9) rotate(-80.75)" style="fill:#263238;stroke:#263238;stroke-linecap:round;stroke-linejoin:round"></circle><rect x="412.91" y="315.91" width="3.87" height="2.52" style="fill:#263238;stroke:#263238;stroke-linecap:round;stroke-linejoin:round"></rect><rect x="410.3" y="293.05" width="9.1" height="23.24" style="fill:#263238;stroke:#263238;stroke-linecap:round;stroke-linejoin:round"></rect><rect x="438.14" y="313.33" width="3.87" height="2.52" transform="translate(-86.88 192.3) rotate(-22.49)" style="fill:#263238;stroke:#263238;stroke-linecap:round;stroke-linejoin:round"></rect><rect x="430.75" y="291.43" width="9.1" height="23.24" transform="translate(-82.83 189.6) rotate(-22.49)" style="fill:#263238;stroke:#263238;stroke-linecap:round;stroke-linejoin:round"></rect><rect x="401.92" y="281.03" width="36.8" height="15.31" style="fill:#5e5e5e;stroke:#263238;stroke-linecap:round;stroke-linejoin:round"></rect><rect x="409.93" y="281.03" width="28.79" height="15.31" style="fill:#263238;stroke:#263238;stroke-linecap:round;stroke-linejoin:round"></rect><polygon points="431.16 353.96 429.71 353.96 429.71 341.47 426.23 341.47 426.23 353.96 425.06 353.96 425.06 361.81 426.23 361.81 426.23 382.43 429.71 382.43 429.71 361.81 431.16 361.81 431.16 353.96" style="fill:#263238;stroke:#263238;stroke-linecap:round;stroke-linejoin:round"></polygon><path d="M457.7,421.07H391.65V395.53a14,14,0,0,1,14-14h12.56a39.51,39.51,0,0,1,39.51,39.51Z" style="fill:#263238;stroke:#263238;stroke-linecap:round;stroke-linejoin:round"></path><path d="M439.49,421.07h-66V395.53a14,14,0,0,1,14-14H400a39.51,39.51,0,0,1,39.51,39.51Z" style="fill:#5e5e5e;stroke:#263238;stroke-linecap:round;stroke-linejoin:round"></path><rect x="395.72" y="340.11" width="27.11" height="43.38" style="fill:#263238;stroke:#263238;stroke-linecap:round;stroke-linejoin:round"></rect><rect x="395.72" y="354.28" width="27.11" height="15.06" style="fill:#5e5e5e;stroke:#263238;stroke-linecap:round;stroke-linejoin:round"></rect><path d="M431.94,421.07H365.89V395.53a14,14,0,0,1,14-14h12.56a39.51,39.51,0,0,1,39.51,39.51Z" style="fill:#263238;stroke:#263238;stroke-linecap:round;stroke-linejoin:round"></path><path d="M354.18,430.76h0a1,1,0,0,1-1-.92l-.82-7.61H356l-.82,7.61A1,1,0,0,1,354.18,430.76Z" style="fill:#263238;stroke:#263238;stroke-linecap:round;stroke-linejoin:round"></path><path d="M397,430.76h0a1,1,0,0,1-1-.92l-.82-7.61h3.68l-.82,7.61A1,1,0,0,1,397,430.76Z" style="fill:#263238;stroke:#263238;stroke-linecap:round;stroke-linejoin:round"></path><path d="M412.91,430.76h0a1,1,0,0,1-1-.92l-.82-7.61h3.68l-.82,7.61A1,1,0,0,1,412.91,430.76Z" style="fill:#263238;stroke:#263238;stroke-linecap:round;stroke-linejoin:round"></path><path d="M456.29,430.76h0a1,1,0,0,1-1-.92l-.82-7.61h3.68l-.82,7.61A1,1,0,0,1,456.29,430.76Z" style="fill:#263238;stroke:#263238;stroke-linecap:round;stroke-linejoin:round"></path><path d="M413.73,421.07h-66V395.53a14,14,0,0,1,14-14h12.56a39.51,39.51,0,0,1,39.51,39.51Z" style="fill:#5e5e5e;stroke:#263238;stroke-linecap:round;stroke-linejoin:round"></path><rect x="344.01" y="419.33" width="118.34" height="4.07" rx="2.03" style="fill:#fff;stroke:#263238;stroke-linecap:round;stroke-linejoin:round"></rect><rect x="378.48" y="335.85" width="85.02" height="7.17" style="fill:#fff;stroke:#263238;stroke-linecap:round;stroke-linejoin:round"></rect><rect x="407.7" y="335.85" width="55.81" height="7.17" style="fill:#263238;stroke:#263238;stroke-linecap:round;stroke-linejoin:round"></rect></g></svg>
